<svg width="186" height="42" viewBox="0 0 186 42" fill="none" xmlns="http://www.w3.org/2000/svg">
<path fill-rule="evenodd" clip-rule="evenodd" d="M172.001 32.154V13.8687H175.189L175.472 17.1882C175.782 16.71 176.149 16.2599 176.572 15.8098C176.995 15.3597 177.503 14.9658 178.067 14.6283C178.631 14.2907 179.28 14.0094 179.986 13.8125C180.691 13.6155 181.509 13.503 182.384 13.503C183.033 13.503 183.653 13.5311 184.218 13.6155C184.782 13.6999 185.261 13.7843 185.628 13.925V17.0476C185.374 16.9632 185.092 16.9069 184.81 16.8506C184.528 16.7944 184.218 16.7662 183.907 16.71C183.597 16.6818 183.287 16.6537 182.948 16.6256C182.609 16.5975 182.271 16.5975 181.961 16.5975C181.312 16.5975 180.719 16.6537 180.211 16.7662C179.675 16.8788 179.196 17.0476 178.772 17.2163C178.349 17.4133 177.954 17.6383 177.616 17.8915C177.277 18.1447 176.967 18.3979 176.713 18.6792C176.459 18.9324 176.233 19.2137 176.036 19.4668C175.838 19.7482 175.697 19.9732 175.556 20.1983V32.0978H172.001V32.154ZM162.212 21.0422C162.127 20.3108 161.901 19.6638 161.534 19.073C161.168 18.4823 160.688 17.9478 160.124 17.5258C159.531 17.1038 158.854 16.7662 158.093 16.5131C157.331 16.288 156.484 16.1474 155.582 16.1474C154.679 16.1474 153.832 16.2599 153.071 16.5131C152.281 16.7381 151.604 17.0757 151.011 17.4977C150.419 17.9196 149.939 18.4541 149.6 19.0449C149.234 19.6356 149.036 20.3108 148.952 21.0422H162.212ZM164.384 30.9444C163.876 31.1695 163.312 31.3945 162.719 31.5914C162.127 31.7883 161.506 31.9571 160.829 32.1259C160.152 32.2666 159.419 32.3791 158.629 32.4635C157.839 32.5479 156.992 32.576 156.061 32.576C154.848 32.576 153.748 32.4635 152.76 32.2384C151.773 32.0134 150.87 31.7039 150.08 31.282C149.29 30.86 148.585 30.3536 147.992 29.791C147.4 29.2003 146.92 28.5532 146.525 27.8218C146.13 27.0904 145.848 26.3027 145.651 25.4588C145.453 24.6149 145.34 23.6865 145.34 22.7301C145.34 21.858 145.453 21.0141 145.651 20.2264C145.848 19.4106 146.159 18.6792 146.553 18.004C146.948 17.3289 147.428 16.6818 148.021 16.1192C148.585 15.5566 149.262 15.0784 150.024 14.6845C150.785 14.2907 151.632 13.9812 152.535 13.7562C153.466 13.5311 154.453 13.4186 155.553 13.4186C156.625 13.4186 157.613 13.5311 158.516 13.7281C159.419 13.925 160.265 14.2063 160.998 14.6001C161.76 14.9658 162.409 15.4159 163.002 15.9504C163.566 16.4849 164.074 17.0757 164.469 17.7508C164.864 18.3979 165.146 19.1293 165.371 19.9169C165.569 20.7046 165.682 21.5204 165.682 22.3644C165.682 22.4769 165.682 22.5894 165.682 22.7301C165.682 22.8426 165.682 22.9833 165.654 23.0958C165.654 23.2083 165.625 23.349 165.625 23.4615C165.625 23.574 165.597 23.6584 165.597 23.7428H148.895C148.952 24.643 149.149 25.4588 149.488 26.2183C149.826 26.9498 150.306 27.5968 150.926 28.1031C151.547 28.6376 152.337 29.0315 153.24 29.3128C154.171 29.5941 155.243 29.7348 156.456 29.7348C157.331 29.7348 158.149 29.6785 158.882 29.5941C159.616 29.5097 160.293 29.3972 160.942 29.2284C161.591 29.0877 162.183 28.8908 162.748 28.6939C163.312 28.497 163.848 28.3001 164.384 28.075V30.9444ZM135.663 32.154V21.0703C135.663 20.1701 135.551 19.4106 135.297 18.7917C135.043 18.1728 134.676 17.6664 134.196 17.3007C133.717 16.9069 133.096 16.6537 132.391 16.4849C131.657 16.3161 130.839 16.2317 129.88 16.2317C129.174 16.2317 128.469 16.288 127.764 16.4005C127.087 16.5131 126.41 16.6537 125.789 16.8506C125.168 17.0476 124.576 17.2445 124.068 17.4977C123.532 17.7508 123.08 18.004 122.657 18.2853C122.742 18.5948 122.77 18.9323 122.827 19.3262C122.883 19.6919 122.911 20.0857 122.911 20.4796V32.1822H119.385V21.0703C119.385 20.1701 119.272 19.4106 119.018 18.7917C118.764 18.1728 118.397 17.6664 117.918 17.3007C117.438 16.9069 116.817 16.6537 116.112 16.4849C115.378 16.3161 114.532 16.2317 113.573 16.2317C112.896 16.2317 112.219 16.288 111.541 16.3724C110.893 16.4849 110.244 16.6256 109.651 16.7944C109.059 16.9632 108.494 17.1601 107.958 17.4133C107.451 17.6383 106.971 17.8915 106.576 18.1447V32.154H103.049V13.8687H106.012L106.294 15.6973C106.745 15.3597 107.281 15.0502 107.874 14.7971C108.466 14.5157 109.115 14.2907 109.792 14.0938C110.469 13.8969 111.203 13.7281 111.993 13.6437C112.755 13.5311 113.545 13.4749 114.363 13.4749C115.124 13.4749 115.858 13.5311 116.592 13.6155C117.325 13.7281 118.002 13.8687 118.623 14.0938C119.244 14.3188 119.836 14.6001 120.372 14.9658C120.908 15.3315 121.359 15.7535 121.754 16.288C122.178 15.8942 122.742 15.5566 123.363 15.1909C124.011 14.8533 124.717 14.5439 125.479 14.2907C126.269 14.0375 127.087 13.8406 127.961 13.6718C128.836 13.5311 129.739 13.4468 130.67 13.4468C131.431 13.4468 132.193 13.503 132.899 13.5874C133.632 13.6718 134.309 13.8406 134.93 14.0656C135.551 14.2907 136.143 14.572 136.679 14.9377C137.215 15.3034 137.666 15.7254 138.033 16.2599C138.428 16.7944 138.71 17.3851 138.908 18.0884C139.105 18.7917 139.218 19.5794 139.218 20.4796V32.1822H135.663V32.154ZM93.2314 21.0422C93.1467 20.3108 92.921 19.6638 92.5543 19.073C92.1875 18.4823 91.7079 17.9478 91.1436 17.5258C90.5512 17.1038 89.874 16.7662 89.1123 16.5131C88.3506 16.288 87.5042 16.1474 86.6014 16.1474C85.6986 16.1474 84.8522 16.2599 84.0904 16.5131C83.3005 16.7381 82.6234 17.0757 82.0309 17.4977C81.4384 17.9196 80.9588 18.4541 80.6203 19.0449C80.2535 19.6356 80.056 20.3108 79.9714 21.0422H93.2314ZM95.4038 30.9444C94.8959 31.1695 94.3317 31.3945 93.7392 31.5914C93.1467 31.7883 92.526 31.9571 91.8489 32.1259C91.1718 32.2666 90.4383 32.3791 89.6483 32.4635C88.8584 32.5479 88.012 32.576 87.081 32.576C85.8678 32.576 84.7675 32.4635 83.7801 32.2384C82.7926 32.0134 81.8898 31.7039 81.0999 31.282C80.3099 30.86 79.6046 30.3536 79.0121 29.791C78.4197 29.2003 77.94 28.5532 77.5451 27.8218C77.1501 27.0904 76.868 26.3027 76.6705 25.4588C76.473 24.6149 76.3601 23.6865 76.3601 22.7301C76.3601 21.858 76.473 21.0141 76.6705 20.2264C76.868 19.4106 77.1783 18.6792 77.5733 18.004C77.9683 17.3289 78.4479 16.6818 79.0404 16.1192C79.6046 15.5566 80.2817 15.0784 81.0434 14.6845C81.8052 14.2907 82.6516 13.9812 83.5544 13.7562C84.4854 13.5311 85.4729 13.4186 86.5732 13.4186C87.6452 13.4186 88.6327 13.5311 89.5355 13.7281C90.4383 13.925 91.2847 14.2063 92.0182 14.6001C92.78 14.9658 93.4289 15.4159 94.0213 15.9504C94.5856 16.4849 95.0934 17.0757 95.4884 17.7508C95.8834 18.3979 96.1655 19.1293 96.3912 19.9169C96.5887 20.7046 96.7015 21.5204 96.7015 22.3644C96.7015 22.4769 96.7015 22.5894 96.7015 22.7301C96.7015 22.8426 96.7015 22.9833 96.6733 23.0958C96.6733 23.2083 96.6451 23.349 96.6451 23.4615C96.6451 23.574 96.6169 23.6584 96.6169 23.7428H79.9149C79.9714 24.643 80.1689 25.4588 80.5074 26.2183C80.846 26.9498 81.3256 27.5968 81.9463 28.1031C82.5669 28.6376 83.3569 29.0315 84.2597 29.3128C85.1907 29.5941 86.2628 29.7348 87.476 29.7348C88.3506 29.7348 89.1687 29.6785 89.9023 29.5941C90.6358 29.5097 91.3129 29.3972 91.9618 29.2284C92.6107 29.0877 93.2032 28.8908 93.7674 28.6939C94.3317 28.497 94.8677 28.3001 95.4038 28.075V30.9444ZM66.6832 32.154V21.0703C66.6832 20.1701 66.5703 19.4106 66.3164 18.7917C66.0625 18.1728 65.6957 17.6664 65.2161 17.3007C64.7365 16.9069 64.1158 16.6537 63.4105 16.4849C62.6769 16.3161 61.8306 16.2317 60.8713 16.2317C60.1942 16.2317 59.5171 16.288 58.84 16.3724C58.1911 16.4849 57.5422 16.6256 56.9498 16.7944C56.3573 16.9632 55.793 17.1601 55.257 17.4133C54.7492 17.6383 54.2695 17.8915 53.8746 18.1447V32.154H50.348V13.8687H53.3103L53.5924 15.6973C54.0438 15.3597 54.5799 15.0502 55.1724 14.7971C55.7648 14.5157 56.4137 14.2907 57.0908 14.0938C57.7679 13.8969 58.5015 13.7281 59.2632 13.6437C60.0249 13.5311 60.8149 13.4749 61.6331 13.4749C62.3948 13.4749 63.1566 13.5311 63.8619 13.6155C64.5954 13.6999 65.2725 13.8687 65.8932 14.0938C66.5139 14.3188 67.1063 14.6001 67.6424 14.9658C68.1784 15.3315 68.6298 15.7535 68.9966 16.288C69.3916 16.8225 69.6737 17.4133 69.8712 18.1165C70.0687 18.8198 70.1815 19.6075 70.1815 20.5077V32.2103H66.6832V32.154ZM31.0504 18.2009C30.4297 13.4468 23.6587 8.7207 17.1698 11.2806C11.3579 13.5311 9.07268 20.1701 11.5836 25.5995C14.2074 31.2538 21.5709 32.9699 26.4517 29.9317C26.9596 29.6222 27.7495 29.0877 28.0599 28.7783C30.3451 26.5278 32.6868 28.4689 32.9689 30.1005C33.5332 33.5043 26.5646 36.3456 23.4048 36.8238C21.5145 37.1051 19.9628 36.6551 19.0036 38.0054C18.0161 39.4119 18.7497 41.1842 19.991 41.7468C21.0067 42.1969 23.5176 41.8593 24.7026 41.6624C27.7213 41.1561 30.3451 39.9745 32.5457 38.568C39.7682 33.9263 43.6333 24.868 41.5174 16.063C38.6961 4.33222 26.48 -2.64434 14.7717 0.928334C6.39247 3.46015 0.77813 10.8868 0.0445984 19.1293C-0.491444 24.9806 3.96617 23.9678 4.75613 21.7736C5.15111 20.5358 4.50222 12.4059 12.2889 7.51105C18.8343 3.37576 27.3546 4.44474 32.5175 9.70529C33.1946 10.4086 34.2103 11.7307 34.8309 12.7435C36.1569 14.9658 37.3701 18.2853 37.0597 21.3516C36.7494 24.5867 33.3921 23.7991 28.5959 23.7709C26.8185 23.7709 18.8061 24.0241 17.8751 23.5459C15.477 22.3081 15.6463 19.5231 17.734 18.4541C18.9189 17.9196 29.273 18.1728 31.0504 18.2009Z" fill="#1F1F1F"/>
</svg>
